<svg version="1.1" id="Layer_1" xmlns="http://www.w3.org/2000/svg" xmlns:xlink="http://www.w3.org/1999/xlink" x="0px" y="0px"
	 width="100%" viewBox="0 0 297 154" enable-background="new 0 0 297 154" xml:space="preserve">
<path fill="#1E1E1D" opacity="1.000000" stroke="none" 
	d="
M87.000000,1.000000 
	C91.689255,1.000000 96.378510,1.000000 101.557594,1.385518 
	C107.064293,15.077253 112.080269,28.383802 117.098511,41.689503 
	C118.844223,46.318218 120.595497,50.944839 122.425774,55.839714 
	C123.675743,56.981010 124.844177,57.855011 126.025444,59.096725 
	C126.992508,60.643314 127.946732,61.822193 128.971542,63.396832 
	C129.064590,64.860153 129.087051,65.927711 128.970810,67.385971 
	C127.939842,76.345901 127.086441,84.912514 130.621704,93.498093 
	C131.348648,94.587067 131.999908,95.366165 132.885895,96.464348 
	C135.080597,96.563812 137.040558,96.344193 139.365662,96.164558 
	C141.819412,93.868271 143.908005,91.531998 145.436371,89.822380 
	C148.598923,93.246162 151.798035,96.709526 155.021271,100.522507 
	C161.479218,107.632912 167.913040,114.393707 174.336548,121.589157 
	C174.326218,124.885620 174.326218,127.747421 174.326218,130.609238 
	C174.823364,130.625244 175.320511,130.641251 175.817673,130.657257 
	C176.206573,129.390472 176.595474,128.123688 176.983658,126.859230 
	C179.011459,128.287720 180.777969,129.532150 182.863892,130.951752 
	C191.696457,137.718231 200.252533,144.255630 208.671646,150.964905 
	C209.801865,151.865585 210.240906,153.633606 211.000000,155.000000 
	C198.645767,155.000000 186.291550,155.000000 173.397919,154.663574 
	C172.223190,153.372223 171.732681,152.269119 170.930405,151.484985 
	C161.467178,142.235809 151.941254,133.050781 142.471725,123.807999 
	C140.295395,121.683792 138.674728,122.464813 137.258575,124.585999 
	C136.748657,125.349770 136.482742,126.276443 136.105469,127.128777 
	C135.648407,126.892097 135.191360,126.655411 134.734299,126.418732 
	C135.970306,124.148186 137.206299,121.877640 138.416504,119.654488 
	C133.070755,112.472290 127.792809,105.267647 122.350197,98.189606 
	C121.520767,97.110947 119.928734,96.618675 118.886490,95.566864 
	C125.992584,89.494812 125.363319,81.678856 117.797104,76.975235 
	C116.528610,76.186661 115.910797,74.351402 115.126282,72.646835 
	C117.150200,71.544220 118.982872,70.516037 120.944061,70.112648 
	C123.631973,69.559792 125.373344,68.578598 124.476120,65.527626 
	C123.620819,62.619175 121.759842,60.882751 118.582222,61.909706 
	C116.593445,62.552452 114.774261,63.719978 112.565643,64.679977 
	C111.833702,64.689087 111.415100,64.670265 110.966888,64.291153 
	C109.075615,59.522388 107.055870,55.173058 105.380539,50.694874 
	C99.192070,34.152973 93.117432,17.568481 87.000000,1.000000 
M157.236740,130.584335 
	C159.372086,129.542130 161.982071,128.913406 163.419571,127.263268 
	C164.032990,126.559113 162.691757,123.052826 161.331848,122.051331 
	C160.078476,121.128304 157.610245,121.854958 155.815842,121.854958 
	C158.235260,123.571182 161.268570,124.632263 161.494019,126.119110 
	C161.910904,128.868347 159.359283,129.331528 156.797516,128.047272 
	C156.045715,128.012085 155.293900,127.976913 154.542099,127.941742 
	C155.269119,128.639221 155.996140,129.336700 157.236740,130.584335 
z"/>
<path fill="#252524" opacity="1.000000" stroke="none" 
	d="
M138.000000,1.000000 
	C146.687561,1.000000 155.375137,1.000000 164.599548,1.355554 
	C167.721298,7.233591 170.386765,12.720037 172.875824,18.285370 
	C180.067047,34.364342 189.266190,49.131226 200.782196,62.508141 
	C203.714890,65.914742 205.635788,70.192413 207.884338,74.369324 
	C206.059372,76.389114 204.371613,78.109444 202.384338,79.958870 
	C199.641190,82.180374 197.197586,84.272774 194.404816,86.184097 
	C191.199890,84.252930 188.344147,82.502823 185.554779,80.376358 
	C185.704010,79.681793 185.858719,79.363525 185.858398,79.045403 
	C185.855774,76.380211 185.824677,73.715050 185.802155,71.049873 
	C181.526245,71.447334 182.678452,75.379128 181.279633,78.063858 
	C179.492599,81.917915 177.863693,85.460960 175.902344,89.727104 
	C174.982040,87.843117 174.632065,87.126678 174.284729,86.001221 
	C174.692184,80.308113 174.964035,75.009323 175.545685,69.744766 
	C175.977325,65.837936 174.105515,64.317368 170.583740,63.828217 
	C168.963684,63.603203 167.399506,62.975731 165.829926,62.125092 
	C164.142944,58.002411 162.796021,54.063766 160.667343,50.606438 
	C151.055283,34.994843 143.624924,18.417618 138.000000,1.000000 
z"/>
<path fill="#111111" opacity="1.000000" stroke="none" 
	d="
M63.000000,155.000000 
	C55.312424,155.000000 47.624847,155.000000 39.403175,154.652496 
	C38.287109,153.119202 37.870060,151.811752 37.098484,150.765839 
	C25.124741,134.534622 15.537276,116.919632 6.657170,98.869446 
	C5.250678,96.010529 2.909195,93.611603 0.999999,91.000000 
	C1.000000,67.979103 1.000000,44.958210 1.331005,21.592098 
	C2.442678,22.834200 3.386977,24.363016 3.978633,26.017908 
	C9.722982,42.085148 15.341488,58.197659 21.145996,74.242950 
	C23.221849,79.981194 25.706684,85.571487 27.639423,91.356506 
	C25.357643,91.930107 23.393049,92.237976 21.545267,92.881332 
	C20.620922,93.203171 19.355421,94.060699 19.251188,94.815071 
	C19.136850,95.642578 19.974548,97.131729 20.760014,97.457039 
	C23.435623,98.565193 26.270935,99.287743 29.115948,100.489075 
	C31.362320,104.689064 33.430687,108.623016 35.742214,112.408493 
	C38.348286,116.676338 41.173248,120.810509 43.959320,125.413719 
	C43.960964,128.631195 43.895081,131.446182 48.020645,131.494965 
	C51.889843,137.592682 55.765045,143.316696 59.562164,149.092041 
	C60.812008,150.993042 61.859810,153.026901 63.000000,155.000000 
z"/>
<path fill="#191918" opacity="1.000000" stroke="none" 
	d="
M144.000000,155.000000 
	C132.645767,155.000000 121.291542,155.000000 109.448036,154.639099 
	C108.612175,153.363297 108.464378,152.292755 107.888573,151.557343 
	C101.460884,143.347763 95.040993,135.129333 88.430573,127.067825 
	C87.062515,125.399452 84.919952,124.366196 83.202774,122.705170 
	C83.177132,121.925316 83.083069,121.480530 82.970474,120.669693 
	C81.763344,118.157478 80.490715,116.052986 79.401825,113.857361 
	C76.058479,107.115807 72.785553,100.339340 69.858307,93.686127 
	C74.484283,94.749062 76.879311,93.150795 77.478149,88.745964 
	C77.787361,86.471542 78.430214,84.242477 79.098969,81.738388 
	C79.927635,80.907707 80.579651,80.331558 81.468452,79.546173 
	C82.659027,89.523705 83.274231,90.438042 89.204941,91.257309 
	C90.636528,90.972610 91.818283,90.573639 93.080284,90.499535 
	C95.649399,94.524269 98.044334,98.291550 100.643150,101.912514 
	C112.857887,118.931458 125.236717,135.815109 140.633224,150.211761 
	C142.028214,151.516159 142.890396,153.390396 144.000000,155.000000 
z"/>
<path fill="#151414" opacity="1.000000" stroke="none" 
	d="
M28.004845,91.229309 
	C25.706684,85.571487 23.221849,79.981194 21.145996,74.242950 
	C15.341488,58.197659 9.722982,42.085148 3.978633,26.017908 
	C3.386977,24.363016 2.442678,22.834200 1.331005,21.123442 
	C1.000000,14.403625 1.000000,7.807250 1.000000,1.000000 
	C8.019411,1.000000 15.040923,1.000000 22.538445,1.408551 
	C24.678356,9.265938 26.342257,16.714773 27.661285,24.326859 
	C25.217575,24.998320 22.996508,25.238401 21.066967,26.117998 
	C19.956966,26.623999 18.656853,28.177967 18.676876,29.236856 
	C18.693052,30.092392 20.506931,31.538542 21.610409,31.626165 
	C24.386919,31.846643 27.212675,31.446964 30.440769,31.310543 
	C33.874702,30.814627 35.832752,31.067381 35.867439,35.122826 
	C36.025032,53.547073 36.469017,71.968872 36.396423,90.537567 
	C33.675900,91.045441 31.368921,91.407288 28.800035,91.629547 
	C28.360369,91.403076 28.182608,91.316193 28.004845,91.229309 
z"/>
<path fill="#1A1A1A" opacity="1.000000" stroke="none" 
	d="
M144.468658,155.000000 
	C142.890396,153.390396 142.028214,151.516159 140.633224,150.211761 
	C125.236717,135.815109 112.857887,118.931458 100.643150,101.912514 
	C98.044334,98.291550 95.649399,94.524269 93.388046,90.350815 
	C95.224648,87.519569 96.833740,85.161911 98.705338,82.582458 
	C99.978813,80.574387 100.989784,78.788101 102.386978,76.973167 
	C103.525978,76.814651 104.278770,76.684769 105.306839,76.626793 
	C105.748566,76.789680 105.915009,76.880653 106.106468,77.237473 
	C106.436615,77.542610 106.741745,77.581909 107.366676,77.807587 
	C110.700363,80.239838 114.160957,82.134506 114.233360,86.627769 
	C114.257202,88.107697 114.651253,89.643478 114.335793,91.030891 
	C114.235962,91.469978 111.621574,91.941391 111.462273,91.659889 
	C110.713028,90.335876 110.206581,88.782333 110.010315,87.259552 
	C109.729774,85.082863 110.685173,82.341187 106.633514,82.157013 
	C102.661812,82.101860 100.112907,83.735321 100.118118,87.426231 
	C100.124374,91.853333 102.409920,95.008362 107.190033,96.423965 
	C111.407524,99.298058 114.970665,96.513840 118.689423,95.855186 
	C119.928734,96.618675 121.520767,97.110947 122.350197,98.189606 
	C127.792809,105.267647 133.070755,112.472290 138.416504,119.654488 
	C137.206299,121.877640 135.970306,124.148186 134.734299,126.418732 
	C135.191360,126.655411 135.648407,126.892097 136.105469,127.128777 
	C136.482742,126.276443 136.748657,125.349770 137.258575,124.585999 
	C138.674728,122.464813 140.295395,121.683792 142.471725,123.807999 
	C151.941254,133.050781 161.467178,142.235809 170.930405,151.484985 
	C171.732681,152.269119 172.223190,153.372223 172.929260,154.663574 
	C163.645767,155.000000 154.291550,155.000000 144.468658,155.000000 
M141.907669,129.402191 
	C142.017181,129.773178 142.126694,130.144150 142.236206,130.515137 
	C142.577240,130.268570 142.918274,130.021988 143.259308,129.775406 
	C142.890823,129.534653 142.522324,129.293900 141.907669,129.402191 
M139.189423,129.646057 
	C138.999481,129.801437 138.809540,129.956818 138.619598,130.112198 
	C138.714340,130.214645 138.809097,130.317108 138.903839,130.419556 
	C139.072510,130.240799 139.241180,130.062027 139.189423,129.646057 
z"/>
<path fill="#2B2B2B" opacity="1.000000" stroke="none" 
	d="
M195.000000,1.000001 
	C205.020889,1.000000 215.041794,1.000000 225.553055,1.373700 
	C229.162720,7.187292 231.849442,12.940893 235.509995,17.988247 
	C240.160629,24.400743 245.600906,30.240551 250.503525,36.611645 
	C248.124207,38.992237 245.942093,41.088470 243.443237,43.357132 
	C239.255432,47.083485 235.384354,50.637409 231.170166,54.398632 
	C229.557358,54.734375 228.287643,54.862816 226.886002,54.703911 
	C225.411545,53.117607 224.069046,51.818645 222.536346,50.244583 
	C220.264526,47.917530 218.182907,45.865578 215.983459,43.504646 
	C212.860016,39.943844 209.854401,36.692020 207.006836,33.120087 
	C209.863052,29.762190 207.692825,27.200880 206.240402,24.694294 
	C203.946899,20.736204 201.127319,17.049828 199.156357,12.947700 
	C197.341888,9.171268 196.352722,4.998294 195.000000,1.000001 
z"/>
<path fill="#1A1A19" opacity="1.000000" stroke="none" 
	d="
M43.000000,1.000000 
	C52.020893,1.000000 61.041790,1.000000 70.554230,1.381035 
	C73.432503,9.659296 75.369171,17.728582 78.307617,25.414890 
	C83.155281,38.095280 88.536240,50.578186 93.987885,63.014809 
	C94.866135,65.018326 97.275002,66.350899 98.945030,68.407425 
	C97.844757,72.507675 96.775780,76.194138 95.446396,80.081245 
	C93.491165,81.778763 91.796326,83.275635 89.982864,84.326889 
	C89.959801,79.967163 89.935600,76.045380 90.185234,72.141121 
	C90.425758,68.379463 88.811813,66.550926 85.260216,67.822441 
	C83.005486,68.629662 81.148323,70.573372 79.149849,72.057228 
	C78.382896,72.626678 77.718674,73.334473 76.985832,73.556343 
	C77.203484,71.354935 77.349968,69.557755 77.702324,67.801888 
	C78.372505,64.462189 77.927422,61.890141 73.836166,61.068649 
	C73.193779,58.972328 72.588120,57.267109 71.955521,55.571941 
	C68.615067,46.620453 65.267830,37.671497 62.201866,28.494232 
	C65.101463,24.764925 63.604210,20.885448 58.685307,20.029819 
	C54.879887,19.367874 50.870434,19.878906 46.960846,19.458010 
	C45.646675,13.031693 44.323338,7.015846 43.000000,1.000000 
z"/>
<path fill="#212121" opacity="1.000000" stroke="none" 
	d="
M137.531723,1.000000 
	C143.624924,18.417618 151.055283,34.994843 160.667343,50.606438 
	C162.796021,54.063766 164.142944,58.002411 165.507141,61.955841 
	C164.468018,62.068024 163.771606,61.943802 162.937347,61.473343 
	C158.645401,58.906868 154.750351,60.091400 152.311462,63.429726 
	C149.390213,67.428352 147.530930,72.194389 145.126007,76.581093 
	C142.808350,80.808624 140.381485,84.976295 137.679382,89.001083 
	C137.179962,87.888535 137.003754,86.945152 136.899292,85.537903 
	C136.980713,78.775627 136.783188,72.467110 137.089752,66.183189 
	C137.237320,63.158264 136.522095,59.330158 141.479889,58.532032 
	C143.110077,58.269592 144.455734,56.239700 145.931503,55.018021 
	C144.084396,54.261925 142.240128,53.498783 140.387909,52.755421 
	C139.998062,52.598957 139.579056,52.515095 139.173492,52.397778 
	C139.499649,52.082729 139.825806,51.767685 140.151962,51.452637 
	C138.767548,49.578354 137.383133,47.704071 135.921875,45.476791 
	C133.276428,39.175968 130.474152,33.316071 128.195053,27.259306 
	C124.929733,18.581577 122.046417,9.760101 119.000000,1.000000 
	C125.021149,1.000000 131.042297,1.000000 137.531723,1.000000 
z"/>
<path fill="#151515" opacity="1.000000" stroke="none" 
	d="
M83.134338,123.040222 
	C84.919952,124.366196 87.062515,125.399452 88.430573,127.067825 
	C95.040993,135.129333 101.460884,143.347763 107.888573,151.557343 
	C108.464378,152.292755 108.612175,153.363297 108.979378,154.639099 
	C100.645767,155.000000 92.291534,155.000000 83.447861,154.639069 
	C79.291298,149.029465 75.680679,143.740021 71.933388,138.549240 
	C70.037010,135.922333 67.893669,133.473709 65.885406,130.589142 
	C64.792488,129.544693 63.676167,128.855591 62.907452,128.381073 
	C62.784210,126.711365 62.670486,125.170586 62.556274,123.623230 
	C63.578331,123.177788 64.695656,122.690826 65.812981,122.203857 
	C65.707283,121.839302 65.601578,121.474739 65.495880,121.110184 
	C63.750565,121.234261 62.005253,121.358345 60.158016,121.113220 
	C57.238720,116.126846 54.258530,111.598755 51.665497,106.858856 
	C50.128258,104.048889 49.201817,100.904778 48.234348,97.752579 
	C48.971336,97.347122 49.474709,97.100006 50.372116,96.841370 
	C55.121918,95.388969 59.477688,93.948097 64.129402,92.805328 
	C66.087212,93.260826 67.749084,93.418213 69.429626,93.566086 
	C69.448303,93.556564 69.485252,93.576447 69.485252,93.576447 
	C72.785553,100.339340 76.058479,107.115807 79.401825,113.857361 
	C80.490715,116.052986 81.763344,118.157478 82.544891,120.678772 
	C80.159958,121.176132 78.182068,121.298378 77.147606,121.362312 
	C78.272736,124.836151 79.205978,127.717545 79.991562,130.143021 
	C81.027412,127.801949 82.080879,125.421089 83.134338,123.040222 
z"/>
<path fill="#20201F" opacity="1.000000" stroke="none" 
	d="
M211.468658,155.000000 
	C210.240906,153.633606 209.801865,151.865585 208.671646,150.964905 
	C200.252533,144.255630 191.696457,137.718231 182.907242,130.525818 
	C182.259903,126.986168 184.116867,123.524307 180.733032,120.863533 
	C180.081787,122.507080 179.609482,123.699043 179.257797,124.586563 
	C177.405670,123.292175 175.876266,122.223343 174.346863,121.154510 
	C167.913040,114.393707 161.479218,107.632912 155.419434,100.449448 
	C160.376709,100.330391 163.315628,98.111382 165.305740,93.843399 
	C166.025299,92.870316 166.465668,92.062286 166.863190,91.332909 
	C168.602386,92.360977 170.129944,93.263947 171.882141,94.405869 
	C172.736969,94.820641 173.367157,94.996475 174.020279,95.529160 
	C175.029343,97.754677 175.673691,99.942070 177.064453,101.433411 
	C181.592041,106.288483 186.462967,110.821823 191.048599,115.625183 
	C192.598114,117.248276 193.690979,119.307304 194.619843,121.228622 
	C193.856949,124.305183 193.466766,127.320236 193.076584,130.335281 
	C193.544312,130.421036 194.012054,130.506805 194.479782,130.592575 
	C195.051086,129.459549 195.622406,128.326523 196.350479,126.882591 
	C197.922760,128.366043 199.180038,129.552277 200.874908,131.151382 
	C201.278473,129.414108 201.559479,128.204453 202.212860,127.014732 
	C204.030502,127.776825 205.556595,128.395523 206.908249,129.280640 
	C217.862656,136.454102 228.816742,143.629410 239.675766,150.945404 
	C241.064178,151.880829 241.905334,153.628571 243.000000,155.000000 
	C232.645767,155.000000 222.291550,155.000000 211.468658,155.000000 
z"/>
<path fill="#242423" opacity="1.000000" stroke="none" 
	d="
M298.000000,144.000000 
	C298.000000,147.591965 298.000000,151.183945 298.000000,155.000000 
	C294.321228,155.000000 290.639801,155.000000 286.403748,154.654816 
	C284.436584,153.015549 283.232483,151.279068 281.577637,150.499451 
	C271.130127,145.577515 260.554169,140.928955 250.080978,136.060379 
	C245.336777,133.854980 240.730972,131.351822 235.662384,128.932251 
	C233.848648,128.104538 232.434921,127.328308 231.021210,126.552094 
	C232.351379,124.926582 233.681564,123.301079 235.145142,121.512527 
	C232.096252,120.348938 230.007263,121.765152 228.519562,124.556305 
	C227.636734,123.069016 227.118973,121.713226 226.144623,120.914169 
	C218.704681,114.812698 211.047623,108.969643 203.737152,102.719795 
	C200.788223,100.198715 198.537186,96.861313 196.100327,93.595276 
	C198.324295,91.451530 200.416473,89.607933 202.875381,87.859634 
	C209.127533,92.769951 214.850998,97.801819 220.937256,102.347961 
	C229.544861,108.777390 238.420380,114.848122 247.187241,121.450577 
	C248.230408,124.621147 249.267715,127.413307 250.689850,131.241272 
	C250.927887,128.450150 251.074905,126.726273 251.586304,125.028008 
	C259.117645,128.392670 266.172913,132.004547 273.481598,134.997620 
	C281.533020,138.294846 289.817200,141.023590 298.000000,144.000000 
z"/>
<path fill="#272727" opacity="1.000000" stroke="none" 
	d="
M194.531342,1.000001 
	C196.352722,4.998294 197.341888,9.171268 199.156357,12.947700 
	C201.127319,17.049828 203.946899,20.736204 206.240402,24.694294 
	C207.692825,27.200880 209.863052,29.762190 206.713287,33.006851 
	C205.865479,33.080238 205.469254,32.946747 204.924103,32.521286 
	C201.761093,29.377207 198.947662,26.256796 195.646927,23.787889 
	C194.032974,22.580673 191.512207,22.585806 189.401886,22.042217 
	C188.848816,24.470539 187.922318,26.892794 187.882706,29.329460 
	C187.858948,30.791740 188.949631,32.515263 190.005234,33.709740 
	C194.504669,38.801079 199.177765,43.738945 203.908417,49.018604 
	C206.693985,51.866528 209.358627,54.428661 212.162003,57.292084 
	C214.505142,59.453632 216.709518,61.313900 218.901428,63.496006 
	C217.829880,65.275200 216.770828,66.732559 215.405045,68.369186 
	C212.739380,70.388916 210.380478,72.229393 208.021561,74.069862 
	C205.635788,70.192413 203.714890,65.914742 200.782196,62.508141 
	C189.266190,49.131226 180.067047,34.364342 172.875824,18.285370 
	C170.386765,12.720037 167.721298,7.233591 165.068207,1.355554 
	C174.687561,1.000000 184.375122,1.000000 194.531342,1.000001 
z"/>
<path fill="#2A2A2A" opacity="1.000000" stroke="none" 
	d="
M298.000000,84.000000 
	C298.000000,90.354401 298.000000,96.708794 297.603760,103.525330 
	C295.911530,103.742203 294.485687,103.764603 293.340363,103.208855 
	C285.015808,99.169403 276.791840,94.919998 268.424927,90.972542 
	C266.732056,90.173866 264.566315,90.377586 262.343628,89.956757 
	C259.710236,87.534698 257.351776,85.275063 254.842133,82.720810 
	C252.466354,80.265999 250.241791,78.105804 247.862839,75.646286 
	C245.483963,73.203026 243.259506,71.059074 240.886688,68.616837 
	C238.679016,66.063354 236.619675,63.808167 234.330017,61.300762 
	C238.205673,57.816738 241.583374,54.780365 245.240784,51.649612 
	C246.342682,51.018410 247.164856,50.481586 248.009003,50.308941 
	C251.820038,54.680996 255.191681,59.225079 259.493622,62.574203 
	C266.377136,67.933105 273.634399,72.924828 281.201813,77.253395 
	C286.390045,80.221062 292.372559,81.800171 298.000000,84.000000 
z"/>
<path fill="#0E0E0E" opacity="1.000000" stroke="none" 
	d="
M0.999999,91.468658 
	C2.909195,93.611603 5.250678,96.010529 6.657170,98.869446 
	C15.537276,116.919632 25.124741,134.534622 37.098484,150.765839 
	C37.870060,151.811752 38.287109,153.119202 38.934540,154.652496 
	C26.387907,155.000000 13.775816,155.000000 1.000000,155.000000 
	C1.000000,133.979355 1.000000,112.958336 0.999999,91.468658 
z"/>
<path fill="#252525" opacity="1.000000" stroke="none" 
	d="
M298.000000,125.000000 
	C298.000000,128.692902 298.000000,132.385818 297.597260,136.532639 
	C290.362854,134.568207 283.381104,132.502060 276.727295,129.666367 
	C255.553009,120.642403 236.854767,107.715935 219.258530,92.985588 
	C215.287567,89.661385 212.238281,84.142845 205.864853,84.556946 
	C209.973831,81.072281 213.918182,77.887688 218.033813,75.011406 
	C220.875549,78.040245 223.360397,80.977997 226.247559,83.444901 
	C241.299500,96.305847 257.417603,107.621628 275.478424,115.888458 
	C282.834625,119.255547 290.484009,121.982056 298.000000,125.000000 
z"/>
<path fill="#2F2F2F" opacity="1.000000" stroke="none" 
	d="
M245.000000,1.000000 
	C250.688034,1.000000 256.376068,1.000000 262.552795,1.360870 
	C263.291046,2.500069 263.315613,3.494352 263.824158,4.024097 
	C270.676147,11.162115 277.325623,18.529881 284.607330,25.205841 
	C288.493011,28.768278 293.499420,31.108271 298.000000,33.999992 
	C298.000000,42.687565 298.000000,51.375126 297.646301,60.463669 
	C287.878540,54.759624 278.464783,48.654167 269.050262,42.549870 
	C266.713379,41.034664 264.374084,39.523289 262.207520,37.722755 
	C265.498749,34.739594 268.618347,32.043831 272.005798,29.182350 
	C272.989319,27.398729 273.704956,25.780828 274.420563,24.162924 
	C272.947479,24.115372 271.474365,24.067823 269.652863,24.071415 
	C267.547760,24.752235 265.791077,25.381916 263.753052,25.829514 
	C261.152771,23.102541 258.578461,20.742971 256.568787,17.973682 
	C252.548950,12.434491 248.838303,6.670922 245.000000,1.000000 
z"/>
<path fill="#2C2C2C" opacity="1.000000" stroke="none" 
	d="
M262.035889,38.010147 
	C264.374084,39.523289 266.713379,41.034664 269.050262,42.549870 
	C278.464783,48.654167 287.878540,54.759624 297.646301,60.932323 
	C298.000000,68.354256 298.000000,75.708504 298.000000,83.531380 
	C292.372559,81.800171 286.390045,80.221062 281.201813,77.253395 
	C273.634399,72.924828 266.377136,67.933105 259.493622,62.574203 
	C255.191681,59.225079 251.820038,54.680996 248.184387,50.028145 
	C251.843948,46.236244 255.350113,43.089321 259.144440,39.821449 
	C260.300385,39.137043 261.168121,38.573597 262.035889,38.010147 
z"/>
<path fill="#1C1C1C" opacity="1.000000" stroke="none" 
	d="
M98.976326,67.993629 
	C97.275002,66.350899 94.866135,65.018326 93.987885,63.014809 
	C88.536240,50.578186 83.155281,38.095280 78.307617,25.414890 
	C75.369171,17.728582 73.432503,9.659296 71.022888,1.381035 
	C76.022095,1.000000 81.044182,1.000000 86.533142,1.000000 
	C93.117432,17.568481 99.192070,34.152973 105.380539,50.694874 
	C107.055870,55.173058 109.075615,59.522388 110.668213,64.439186 
	C109.556686,65.184097 108.714233,65.420685 107.464127,65.622177 
	C104.363098,66.389267 101.669708,67.191444 98.976326,67.993629 
z"/>
<path fill="#282727" opacity="1.000000" stroke="none" 
	d="
M298.000000,124.531464 
	C290.484009,121.982056 282.834625,119.255547 275.478424,115.888458 
	C257.417603,107.621628 241.299500,96.305847 226.247559,83.444901 
	C223.360397,80.977997 220.875549,78.040245 218.035370,74.826698 
	C217.865662,74.333679 217.902603,73.966103 218.223709,73.858276 
	C220.684250,72.125526 222.823685,70.500610 225.294907,68.973061 
	C227.278412,70.307175 228.930130,71.543922 230.766098,73.035629 
	C233.553223,75.689644 236.156128,78.088692 238.907257,80.767029 
	C241.021194,82.727257 242.986908,84.408203 245.112061,86.379364 
	C247.750504,88.986427 250.229523,91.303284 252.860565,93.893341 
	C255.289597,96.235039 257.566589,98.303528 260.029755,100.632828 
	C262.765320,102.961555 265.314697,105.029457 268.070679,107.369247 
	C270.533661,109.020142 272.695007,110.617622 275.096832,111.662285 
	C275.963654,112.039291 277.660919,111.370316 278.482361,110.628479 
	C278.900726,110.250656 278.554840,108.385246 277.973145,107.655922 
	C275.813690,104.948593 273.412750,102.433907 270.942261,99.558228 
	C268.460419,96.858749 266.138794,94.447914 263.719788,91.769203 
	C263.287781,91.040604 262.953156,90.579895 262.618561,90.119179 
	C264.566315,90.377586 266.732056,90.173866 268.424927,90.972542 
	C276.791840,94.919998 285.015808,99.169403 293.340363,103.208855 
	C294.485687,103.764603 295.911530,103.742203 297.603760,103.993736 
	C298.000000,110.687645 298.000000,117.375290 298.000000,124.531464 
z"/>
<path fill="#131313" opacity="1.000000" stroke="none" 
	d="
M65.861992,130.944489 
	C67.893669,133.473709 70.037010,135.922333 71.933388,138.549240 
	C75.680679,143.740021 79.291298,149.029465 82.979218,154.639069 
	C76.645599,155.000000 70.291206,155.000000 63.468403,155.000000 
	C61.859810,153.026901 60.812008,150.993042 59.562164,149.092041 
	C55.765045,143.316696 51.889843,137.592682 48.338295,131.377884 
	C48.883289,130.719101 49.372810,130.397552 49.352921,130.362152 
	C47.809734,127.614769 46.226555,124.889862 44.622707,122.122269 
	C44.463074,122.761185 44.183041,123.882004 43.903008,125.002823 
	C41.173248,120.810509 38.348286,116.676338 35.742214,112.408493 
	C33.430687,108.623016 31.362320,104.689064 29.100147,100.367104 
	C29.013680,99.913559 28.936256,99.680107 29.355152,99.758438 
	C32.195591,99.616966 34.617130,99.397163 37.430092,99.216202 
	C39.581062,98.942490 41.340611,98.629929 43.509727,98.288971 
	C45.279774,98.144020 46.640255,98.027466 48.000732,97.910912 
	C49.201817,100.904778 50.128258,104.048889 51.665497,106.858856 
	C54.258530,111.598755 57.238720,116.126846 60.174934,121.525902 
	C60.293774,125.029495 60.293774,127.751198 60.293774,130.944489 
	C62.654598,130.944489 64.258293,130.944489 65.861992,130.944489 
z"/>
<path fill="#222221" opacity="1.000000" stroke="none" 
	d="
M243.468536,155.000000 
	C241.905334,153.628571 241.064178,151.880829 239.675766,150.945404 
	C228.816742,143.629410 217.862656,136.454102 206.908249,129.280640 
	C205.556595,128.395523 204.030502,127.776825 202.114532,126.635468 
	C201.497864,124.622337 201.351883,123.008423 201.205902,121.394501 
	C200.830017,121.410393 200.454147,121.426285 200.078262,121.442169 
	C199.772125,122.790283 199.465988,124.138390 198.972229,126.312698 
	C197.340912,124.203445 196.166733,122.685272 194.992554,121.167099 
	C193.690979,119.307304 192.598114,117.248276 191.048599,115.625183 
	C186.462967,110.821823 181.592041,106.288483 177.064453,101.433411 
	C175.673691,99.942070 175.029343,97.754677 174.364517,95.416580 
	C181.524750,92.728394 182.824936,86.486473 185.076385,80.824219 
	C185.215759,80.814148 185.488388,80.752716 185.488388,80.752716 
	C188.344147,82.502823 191.199890,84.252930 194.211395,86.476654 
	C191.805878,90.398438 188.907684,93.653854 186.789978,97.355759 
	C185.097565,100.314240 185.956879,102.351402 190.040131,101.223831 
	C192.310379,103.775612 194.373734,106.139366 196.726547,108.167282 
	C201.856873,112.589096 207.134491,116.839996 212.294556,121.598289 
	C212.202988,123.679550 212.099060,125.325340 212.148026,126.966560 
	C212.279160,131.361572 213.538025,131.958908 216.558929,130.285370 
	C215.992920,128.730743 215.495758,127.365211 215.370972,126.021194 
	C217.991486,127.053207 220.384323,127.829910 222.461899,129.115967 
	C230.192169,133.901108 237.787369,138.903946 245.494415,143.727341 
	C251.616653,147.558868 257.828125,151.247772 264.000000,155.000000 
	C257.312347,155.000000 250.624710,155.000000 243.468536,155.000000 
z"/>
<path fill="#222222" opacity="1.000000" stroke="none" 
	d="
M264.468567,155.000000 
	C257.828125,151.247772 251.616653,147.558868 245.494415,143.727341 
	C237.787369,138.903946 230.192169,133.901108 222.461899,129.115967 
	C220.384323,127.829910 217.991486,127.053207 215.295929,125.681679 
	C215.737106,124.075760 216.625717,122.830856 217.817871,121.160744 
	C215.853256,121.160744 214.102585,121.160744 212.351913,121.160736 
	C207.134491,116.839996 201.856873,112.589096 196.726547,108.167282 
	C194.373734,106.139366 192.310379,103.775612 190.191544,100.933319 
	C192.167725,98.166786 194.068146,96.031097 195.968552,93.895416 
	C198.537186,96.861313 200.788223,100.198715 203.737152,102.719795 
	C211.047623,108.969643 218.704681,114.812698 226.144623,120.914169 
	C227.118973,121.713226 227.636734,123.069016 228.517517,124.842476 
	C230.023163,131.399887 231.917160,132.287720 236.062393,128.983749 
	C240.730972,131.351822 245.336777,133.854980 250.080978,136.060379 
	C260.554169,140.928955 271.130127,145.577515 281.577637,150.499451 
	C283.232483,151.279068 284.436584,153.015549 285.924561,154.654816 
	C278.979034,155.000000 271.958099,155.000000 264.468567,155.000000 
z"/>
<path fill="#20201F" opacity="1.000000" stroke="none" 
	d="
M118.532394,1.000000 
	C122.046417,9.760101 124.929733,18.581577 128.195053,27.259306 
	C130.474152,33.316071 133.276428,39.175968 135.533661,45.544949 
	C133.776108,46.546394 132.329880,47.126690 130.558548,47.849285 
	C129.886978,48.997860 129.540512,50.004139 129.127701,51.263832 
	C129.119324,51.681984 129.177292,51.846725 129.050934,52.337894 
	C126.692505,53.633690 124.518372,54.603050 122.344238,55.572414 
	C120.595497,50.944839 118.844223,46.318218 117.098511,41.689503 
	C112.080269,28.383802 107.064293,15.077253 102.023712,1.385518 
	C107.354927,1.000000 112.709862,1.000000 118.532394,1.000000 
z"/>
<path fill="#313131" opacity="1.000000" stroke="none" 
	d="
M298.000000,33.531334 
	C293.499420,31.108271 288.493011,28.768278 284.607330,25.205841 
	C277.325623,18.529881 270.676147,11.162115 263.824158,4.024097 
	C263.315613,3.494352 263.291046,2.500069 263.020752,1.360870 
	C274.591095,1.000000 286.182159,1.000000 298.000000,1.000000 
	C298.000000,11.686494 298.000000,22.374588 298.000000,33.531334 
z"/>
<path fill="#242424" opacity="1.000000" stroke="none" 
	d="
M205.700226,84.857018 
	C212.238281,84.142845 215.287567,89.661385 219.258530,92.985588 
	C236.854767,107.715935 255.553009,120.642403 276.727295,129.666367 
	C283.381104,132.502060 290.362854,134.568207 297.597260,136.993286 
	C298.000000,139.041672 298.000000,141.083328 298.000000,143.562500 
	C289.817200,141.023590 281.533020,138.294846 273.481598,134.997620 
	C266.172913,132.004547 259.117645,128.392670 251.579193,124.695770 
	C251.935425,123.488968 252.663132,122.640022 254.007065,121.072174 
	C251.095245,121.072174 249.138306,121.072174 247.181381,121.072174 
	C238.420380,114.848122 229.544861,108.777390 220.937256,102.347961 
	C214.850998,97.801819 209.127533,92.769951 203.034424,87.581741 
	C203.532501,86.412643 204.238266,85.616722 205.132935,84.832916 
	C205.321838,84.845039 205.700226,84.857018 205.700226,84.857018 
z"/>
<path fill="#2E2E2D" opacity="1.000000" stroke="none" 
	d="
M244.531723,1.000000 
	C248.838303,6.670922 252.548950,12.434491 256.568787,17.973682 
	C258.578461,20.742971 261.152771,23.102541 263.567200,26.107021 
	C261.067688,28.683775 258.472656,30.800936 255.571777,33.009789 
	C253.744202,34.176750 252.222458,35.252014 250.700714,36.327282 
	C245.600906,30.240551 240.160629,24.400743 235.509995,17.988247 
	C231.849442,12.940893 229.162720,7.187292 226.021713,1.373700 
	C232.021149,1.000000 238.042297,1.000000 244.531723,1.000000 
z"/>
<path fill="#161616" opacity="1.000000" stroke="none" 
	d="
M42.531597,1.000000 
	C44.323338,7.015846 45.646675,13.031693 46.995300,19.537474 
	C47.020592,20.027409 47.073097,20.192497 46.669220,20.161049 
	C44.176571,20.681622 42.087799,21.233644 39.645554,21.768539 
	C36.214531,22.585777 33.136974,23.420143 29.718342,24.217993 
	C28.920229,24.175520 28.463194,24.169563 28.006157,24.163609 
	C26.342257,16.714773 24.678356,9.265938 23.007229,1.408551 
	C29.354399,1.000000 35.708797,1.000000 42.531597,1.000000 
z"/>
<path fill="#EDE5A0" opacity="1.000000" stroke="none" 
	d="
M165.026566,94.008453 
	C163.315628,98.111382 160.376709,100.330391 155.395325,100.099838 
	C151.798035,96.709526 148.598923,93.246162 145.436371,89.822380 
	C143.908005,91.531998 141.819412,93.868271 139.297852,95.779968 
	C138.577454,93.293694 138.290024,91.231987 138.002594,89.170273 
	C140.381485,84.976295 142.808350,80.808624 145.126007,76.581093 
	C147.530930,72.194389 149.390213,67.428352 152.311462,63.429726 
	C154.750351,60.091400 158.645401,58.906868 162.923523,61.921207 
	C163.010956,64.208374 162.974365,65.701431 162.551727,67.123749 
	C160.483917,68.018898 157.542847,68.765259 157.329803,69.987213 
	C156.162308,76.683975 155.304504,83.485062 155.072052,90.275368 
	C154.935562,94.262611 157.427277,95.482841 161.313812,93.054977 
	C162.780090,93.415787 163.903320,93.712120 165.026566,94.008453 
z"/>
<path fill="#EBE09C" opacity="1.000000" stroke="none" 
	d="
M130.883667,47.706982 
	C132.329880,47.126690 133.776108,46.546394 135.610519,45.897942 
	C137.383133,47.704071 138.767548,49.578354 140.151962,51.452637 
	C139.825806,51.767685 139.499649,52.082729 139.173492,52.397778 
	C139.579056,52.515095 139.998062,52.598957 140.387909,52.755421 
	C142.240128,53.498783 144.084396,54.261925 145.931503,55.018021 
	C144.455734,56.239700 143.110077,58.269592 141.479889,58.532032 
	C136.522095,59.330158 137.237320,63.158264 137.089752,66.183189 
	C136.783188,72.467110 136.980713,78.775627 136.572998,85.703995 
	C135.000336,89.604385 133.825745,92.874825 132.651154,96.145264 
	C131.999908,95.366165 131.348648,94.587067 130.921173,93.179871 
	C131.262787,86.376434 131.608932,80.192703 131.382874,74.029976 
	C131.295944,71.660469 129.905823,69.338760 129.109497,66.995277 
	C129.087051,65.927711 129.064590,64.860153 129.065475,63.029167 
	C129.169128,61.513493 129.249420,60.761242 129.632370,59.841072 
	C129.701752,57.119259 129.468491,54.565361 129.235245,52.011463 
	C129.177292,51.846725 129.119324,51.681984 129.438873,51.127602 
	C130.172150,49.727634 130.527908,48.717308 130.883667,47.706982 
z"/>
<path fill="#D8C888" opacity="1.000000" stroke="none" 
	d="
M107.871780,65.657272 
	C108.714233,65.420685 109.556686,65.184097 110.697823,64.799469 
	C111.415100,64.670265 111.833702,64.689087 112.589905,65.130371 
	C113.615776,68.035149 114.304047,70.517471 114.992325,72.999786 
	C115.910797,74.351402 116.528610,76.186661 117.797104,76.975235 
	C125.363319,81.678856 125.992584,89.494812 118.886490,95.566864 
	C114.970665,96.513840 111.407524,99.298058 107.201950,95.950104 
	C106.976334,90.892586 106.997528,86.563042 107.018723,82.233505 
	C110.685173,82.341187 109.729774,85.082863 110.010315,87.259552 
	C110.206581,88.782333 110.713028,90.335876 111.462273,91.659889 
	C111.621574,91.941391 114.235962,91.469978 114.335793,91.030891 
	C114.651253,89.643478 114.257202,88.107697 114.233360,86.627769 
	C114.160957,82.134506 110.700363,80.239838 107.377640,77.608459 
	C107.068787,77.222954 107.009422,76.828560 107.179062,76.462776 
	C107.523064,72.617081 107.697418,69.137177 107.871780,65.657272 
z"/>
<path fill="#D9C989" opacity="1.000000" stroke="none" 
	d="
M115.126282,72.646835 
	C114.304047,70.517471 113.615776,68.035149 112.903244,65.102432 
	C114.774261,63.719978 116.593445,62.552452 118.582222,61.909706 
	C121.759842,60.882751 123.620819,62.619175 124.476120,65.527626 
	C125.373344,68.578598 123.631973,69.559792 120.944061,70.112648 
	C118.982872,70.516037 117.150200,71.544220 115.126282,72.646835 
z"/>
<path fill="#E3D795" opacity="1.000000" stroke="none" 
	d="
M128.970810,67.385971 
	C129.905823,69.338760 131.295944,71.660469 131.382874,74.029976 
	C131.608932,80.192703 131.262787,86.376434 130.845490,92.870010 
	C127.086441,84.912514 127.939842,76.345901 128.970810,67.385971 
z"/>
<path fill="#B7A974" opacity="1.000000" stroke="none" 
	d="
M174.336548,121.589157 
	C175.876266,122.223343 177.405670,123.292175 179.257797,124.586563 
	C179.609482,123.699043 180.081787,122.507080 180.733032,120.863533 
	C184.116867,123.524307 182.259903,126.986168 182.587799,130.350647 
	C180.777969,129.532150 179.011459,128.287720 176.983658,126.859230 
	C176.595474,128.123688 176.206573,129.390472 175.817673,130.657257 
	C175.320511,130.641251 174.823364,130.625244 174.326218,130.609238 
	C174.326218,127.747421 174.326218,124.885620 174.336548,121.589157 
z"/>
<path fill="#E3D795" opacity="1.000000" stroke="none" 
	d="
M129.050934,52.337894 
	C129.468491,54.565361 129.701752,57.119259 129.451813,59.474754 
	C127.983276,59.093903 126.997948,58.911453 126.012611,58.729004 
	C124.844177,57.855011 123.675743,56.981010 122.425774,55.839714 
	C124.518372,54.603050 126.692505,53.633690 129.050934,52.337894 
z"/>
<path fill="#C3B982" opacity="1.000000" stroke="none" 
	d="
M156.926224,128.605942 
	C159.359283,129.331528 161.910904,128.868347 161.494019,126.119110 
	C161.268570,124.632263 158.235260,123.571182 155.815842,121.854958 
	C157.610245,121.854958 160.078476,121.128304 161.331848,122.051331 
	C162.691757,123.052826 164.032990,126.559113 163.419571,127.263268 
	C161.982071,128.913406 159.372086,129.542130 157.065277,129.957123 
	C156.904617,129.088562 156.915421,128.847244 156.926224,128.605942 
z"/>
<path fill="#EDE29C" opacity="1.000000" stroke="none" 
	d="
M132.885895,96.464348 
	C133.825745,92.874825 135.000336,89.604385 136.501251,86.167862 
	C137.003754,86.945152 137.179962,87.888535 137.679382,89.001091 
	C138.290024,91.231987 138.577454,93.293694 138.932709,95.739990 
	C137.040558,96.344193 135.080597,96.563812 132.885895,96.464348 
z"/>
<path fill="#20201F" opacity="1.000000" stroke="none" 
	d="
M126.025444,59.096722 
	C126.997948,58.911453 127.983276,59.093903 129.149170,59.642670 
	C129.249420,60.761242 129.169128,61.513493 128.994888,62.633408 
	C127.946732,61.822193 126.992508,60.643314 126.025444,59.096722 
z"/>
<path fill="#2F2E28" opacity="1.000000" stroke="none" 
	d="
M156.861877,128.326599 
	C156.915421,128.847244 156.904617,129.088562 156.808472,129.682037 
	C155.996140,129.336700 155.269119,128.639221 154.542099,127.941742 
	C155.293900,127.976913 156.045715,128.012085 156.861877,128.326599 
z"/>
<path fill="#E5D997" opacity="1.000000" stroke="none" 
	d="
M165.305740,93.843399 
	C163.903320,93.712120 162.780090,93.415787 161.404572,92.706696 
	C165.215240,84.174149 167.149994,75.902962 162.937775,67.194496 
	C162.974365,65.701431 163.010956,64.208374 163.061371,62.267445 
	C163.771606,61.943802 164.468018,62.068024 165.487213,62.361504 
	C167.399506,62.975731 168.963684,63.603203 170.583740,63.828217 
	C174.105515,64.317368 175.977325,65.837936 175.545685,69.744766 
	C174.964035,75.009323 174.692184,80.308113 174.106964,86.394524 
	C173.170212,89.520203 172.413849,91.843559 171.657501,94.166924 
	C170.129944,93.263947 168.602386,92.360977 166.863190,91.332909 
	C166.465668,92.062286 166.025299,92.870316 165.305740,93.843399 
z"/>
<path fill="#D1BE82" opacity="1.000000" stroke="none" 
	d="
M204.944031,84.820801 
	C204.238266,85.616722 203.532501,86.412643 202.667694,87.486450 
	C200.416473,89.607933 198.324295,91.451530 196.100327,93.595268 
	C194.068146,96.031097 192.167725,98.166786 190.115906,100.592987 
	C185.956879,102.351402 185.097565,100.314240 186.789978,97.355759 
	C188.907684,93.653854 191.805878,90.398438 194.560577,86.657730 
	C197.197586,84.272774 199.641190,82.180374 202.656448,80.188957 
	C203.800079,81.800232 204.372055,83.310509 204.944031,84.820801 
z"/>
<path fill="#CBB57C" opacity="1.000000" stroke="none" 
	d="
M205.132935,84.832916 
	C204.372055,83.310509 203.800079,81.800232 202.955994,80.059860 
	C204.371613,78.109444 206.059372,76.389114 207.884338,74.369324 
	C210.380478,72.229393 212.739380,70.388916 215.490692,68.762054 
	C216.556274,70.639137 217.229446,72.302620 217.902603,73.966103 
	C217.902603,73.966103 217.865662,74.333679 217.864090,74.518387 
	C213.918182,77.887688 209.973831,81.072281 205.864853,84.556946 
	C205.700226,84.857018 205.321838,84.845039 205.132935,84.832916 
z"/>
<path fill="#E1D493" opacity="1.000000" stroke="none" 
	d="
M171.882141,94.405869 
	C172.413849,91.843559 173.170212,89.520203 174.104324,86.803543 
	C174.632065,87.126678 174.982040,87.843117 175.902344,89.727104 
	C177.863693,85.460960 179.492599,81.917915 181.631882,78.158401 
	C183.073837,78.906052 184.005417,79.870171 184.937012,80.834290 
	C182.824936,86.486473 181.524750,92.728394 174.341599,95.059723 
	C173.367157,94.996475 172.736969,94.820641 171.882141,94.405869 
z"/>
<path fill="#D3C387" opacity="1.000000" stroke="none" 
	d="
M185.076385,80.824219 
	C184.005417,79.870171 183.073837,78.906052 181.790009,77.847397 
	C182.678452,75.379128 181.526245,71.447334 185.802155,71.049873 
	C185.824677,73.715050 185.855774,76.380211 185.858398,79.045403 
	C185.858719,79.363525 185.704010,79.681793 185.554779,80.376358 
	C185.488388,80.752716 185.215759,80.814148 185.076385,80.824219 
z"/>
<path fill="#926A39" opacity="1.000000" stroke="none" 
	d="
M27.639423,91.356506 
	C28.182608,91.316193 28.360369,91.403076 28.782837,92.012199 
	C28.997118,94.916336 28.966686,97.298218 28.936256,99.680107 
	C28.936256,99.680107 29.013680,99.913559 29.029482,100.035522 
	C26.270935,99.287743 23.435623,98.565193 20.760014,97.457039 
	C19.974548,97.131729 19.136850,95.642578 19.251188,94.815071 
	C19.355421,94.060699 20.620922,93.203171 21.545267,92.881332 
	C23.393049,92.237976 25.357643,91.930107 27.639423,91.356506 
z"/>
<path fill="#805B30" opacity="1.000000" stroke="none" 
	d="
M43.959320,125.413719 
	C44.183041,123.882004 44.463074,122.761185 44.622707,122.122269 
	C46.226555,124.889862 47.809734,127.614769 49.352921,130.362152 
	C49.372810,130.397552 48.883289,130.719101 48.313896,131.024170 
	C43.895081,131.446182 43.960964,128.631195 43.959320,125.413719 
z"/>
<path fill="#BC9F65" opacity="1.000000" stroke="none" 
	d="
M73.860458,61.464386 
	C77.927422,61.890141 78.372505,64.462189 77.702324,67.801888 
	C77.349968,69.557755 77.203484,71.354935 76.997696,73.963249 
	C78.317436,77.020775 73.417206,80.873253 78.922310,81.992920 
	C78.430214,84.242477 77.787361,86.471542 77.478149,88.745964 
	C76.879311,93.150795 74.484283,94.749062 69.858307,93.686127 
	C69.485252,93.576447 69.448303,93.556564 69.225006,93.219757 
	C68.723648,84.004082 68.150688,75.115883 68.431404,66.254723 
	C68.483749,64.602264 71.962822,63.058376 73.860458,61.464386 
z"/>
<path fill="#C3AA6E" opacity="1.000000" stroke="none" 
	d="
M79.098969,81.738388 
	C73.417206,80.873253 78.317436,77.020775 77.019501,74.386131 
	C77.718674,73.334473 78.382896,72.626678 79.149849,72.057228 
	C81.148323,70.573372 83.005486,68.629662 85.260216,67.822441 
	C88.811813,66.550926 90.425758,68.379463 90.185234,72.141121 
	C89.935600,76.045380 89.959801,79.967163 89.821053,84.699890 
	C89.503616,87.393341 89.229370,89.268196 88.955116,91.143044 
	C83.274231,90.438042 82.659027,89.523705 81.468452,79.546173 
	C80.579651,80.331558 79.927635,80.907707 79.098969,81.738388 
z"/>
<path fill="#C7B276" opacity="1.000000" stroke="none" 
	d="
M89.204941,91.257309 
	C89.229370,89.268196 89.503616,87.393341 89.939674,85.145500 
	C91.796326,83.275635 93.491165,81.778763 95.786751,80.298218 
	C97.072617,81.144440 97.757736,81.974350 98.442841,82.804260 
	C96.833740,85.161911 95.224648,87.519569 93.307785,90.025955 
	C91.818283,90.573639 90.636528,90.972610 89.204941,91.257309 
z"/>
<path fill="#A38753" opacity="1.000000" stroke="none" 
	d="
M83.202766,122.705170 
	C82.080879,125.421089 81.027412,127.801949 79.991562,130.143021 
	C79.205978,127.717545 78.272736,124.836151 77.147606,121.362312 
	C78.182068,121.298378 80.159958,121.176132 82.563423,121.044815 
	C83.083069,121.480530 83.177132,121.925316 83.202766,122.705170 
z"/>
<path fill="#A57E48" opacity="1.000000" stroke="none" 
	d="
M30.059422,24.254509 
	C33.136974,23.420143 36.214531,22.585777 39.646400,22.181526 
	C40.338642,39.207767 40.496162,55.810814 41.132156,72.395515 
	C41.306957,76.953758 42.912178,81.457146 43.852448,86.300674 
	C43.598465,87.629517 43.353062,88.643394 43.084084,90.139496 
	C43.073723,93.186928 43.086941,95.752144 43.100159,98.317368 
	C41.340611,98.629929 39.581062,98.942490 37.421394,98.736397 
	C36.950836,95.609016 36.880402,93.000282 36.809967,90.391548 
	C36.469017,71.968872 36.025032,53.547073 35.867439,35.122826 
	C35.832752,31.067381 33.874702,30.814627 30.431038,30.863205 
	C30.019289,28.352318 30.039354,26.303413 30.059422,24.254509 
z"/>
<path fill="#906939" opacity="1.000000" stroke="none" 
	d="
M29.718344,24.217993 
	C30.039354,26.303413 30.019289,28.352318 30.008957,30.848560 
	C27.212675,31.446964 24.386919,31.846643 21.610409,31.626165 
	C20.506931,31.538542 18.693052,30.092392 18.676876,29.236856 
	C18.656853,28.177967 19.956966,26.623999 21.066967,26.117998 
	C22.996508,25.238401 25.217575,24.998320 27.661285,24.326859 
	C28.463194,24.169563 28.920229,24.175520 29.718344,24.217993 
z"/>
<path fill="#A37B44" opacity="1.000000" stroke="none" 
	d="
M36.396423,90.537567 
	C36.880402,93.000282 36.950836,95.609016 37.029968,98.697556 
	C34.617130,99.397163 32.195591,99.616966 29.355152,99.758438 
	C28.966686,97.298218 28.997118,94.916336 29.044746,92.151794 
	C31.368921,91.407288 33.675900,91.045441 36.396423,90.537567 
z"/>
<path fill="#D3C081" opacity="1.000000" stroke="none" 
	d="
M98.705345,82.582466 
	C97.757736,81.974350 97.072617,81.144440 96.047150,80.097565 
	C96.775780,76.194138 97.844757,72.507675 98.945030,68.407425 
	C101.669708,67.191444 104.363098,66.389267 107.464127,65.622177 
	C107.697418,69.137177 107.523064,72.617081 106.947800,76.505219 
	C106.546898,76.913445 106.081444,76.971626 106.081444,76.971626 
	C105.915009,76.880653 105.748566,76.789680 105.186417,76.363586 
	C103.860710,76.352913 102.930733,76.677361 102.000763,77.001801 
	C100.989784,78.788101 99.978813,80.574387 98.705345,82.582466 
z"/>
<path fill="#CFBC7E" opacity="1.000000" stroke="none" 
	d="
M106.633514,82.157013 
	C106.997528,86.563042 106.976334,90.892586 106.943230,95.695984 
	C102.409920,95.008362 100.124374,91.853333 100.118118,87.426231 
	C100.112907,83.735321 102.661812,82.101860 106.633514,82.157013 
z"/>
<path fill="#C7B276" opacity="1.000000" stroke="none" 
	d="
M102.386978,76.973160 
	C102.930733,76.677361 103.860710,76.352913 104.911125,76.291672 
	C104.278770,76.684769 103.525978,76.814651 102.386978,76.973160 
z"/>
<path fill="#1E1E1D" opacity="1.000000" stroke="none" 
	d="
M142.030762,129.227661 
	C142.522324,129.293900 142.890823,129.534653 143.259308,129.775406 
	C142.918274,130.021988 142.577240,130.268570 142.236206,130.515137 
	C142.126694,130.144150 142.017181,129.773178 142.030762,129.227661 
z"/>
<path fill="#1E1E1D" opacity="1.000000" stroke="none" 
	d="
M139.299637,129.764648 
	C139.241180,130.062027 139.072510,130.240799 138.903839,130.419556 
	C138.809097,130.317108 138.714340,130.214645 138.619598,130.112213 
	C138.809540,129.956818 138.999481,129.801437 139.299637,129.764648 
z"/>
<path fill="#C7B276" opacity="1.000000" stroke="none" 
	d="
M106.106468,77.237473 
	C106.081444,76.971626 106.546898,76.913445 106.778160,76.871002 
	C107.009422,76.828560 107.068787,77.222954 107.057831,77.422073 
	C106.741745,77.581909 106.436615,77.542610 106.106468,77.237473 
z"/>
<path fill="#BC9E69" opacity="1.000000" stroke="none" 
	d="
M238.759018,80.487740 
	C236.156128,78.088692 233.553223,75.689644 230.973495,72.610886 
	C231.738831,66.034492 234.569153,60.198624 231.513290,54.191330 
	C235.384354,50.637409 239.255432,47.083485 243.486374,43.820679 
	C244.217850,46.655857 244.589447,49.199924 244.961060,51.743988 
	C241.583374,54.780365 238.205673,57.816738 234.330017,61.300762 
	C236.619675,63.808167 238.679016,66.063354 240.802429,69.020691 
	C240.164001,73.311142 239.461502,76.899437 238.759018,80.487740 
z"/>
<path fill="#CBB57C" opacity="1.000000" stroke="none" 
	d="
M205.073013,32.813263 
	C205.469254,32.946747 205.865479,33.080238 206.555252,33.326965 
	C209.854401,36.692020 212.860016,39.943844 215.815506,43.888962 
	C215.503967,46.660469 215.514740,48.822449 214.907867,50.794338 
	C214.244003,52.951439 213.009216,54.932827 212.023254,56.990799 
	C209.358627,54.428661 206.693985,51.866528 204.010223,48.557030 
	C204.351730,42.810867 204.712372,37.812065 205.073013,32.813263 
z"/>
<path fill="#B29261" opacity="1.000000" stroke="none" 
	d="
M245.240784,51.649612 
	C244.589447,49.199924 244.217850,46.655857 243.803101,43.648247 
	C245.942093,41.088470 248.124207,38.992237 250.503525,36.611641 
	C252.222458,35.252014 253.744202,34.176750 255.829559,33.260048 
	C257.214203,35.593208 258.035248,37.767803 258.856262,39.942398 
	C255.350113,43.089321 251.843948,46.236244 248.162415,49.663963 
	C247.164856,50.481586 246.342682,51.018410 245.240784,51.649612 
z"/>
<path fill="#C4AB73" opacity="1.000000" stroke="none" 
	d="
M218.223709,73.858276 
	C217.229446,72.302620 216.556274,70.639137 215.797455,68.582794 
	C216.770828,66.732559 217.829880,65.275200 219.060776,63.131035 
	C220.397263,58.469376 221.561905,54.494534 222.726532,50.519688 
	C224.069046,51.818645 225.411545,53.117607 226.574615,54.936924 
	C225.917831,59.930088 225.440475,64.402893 224.963120,68.875694 
	C222.823685,70.500610 220.684250,72.125526 218.223709,73.858276 
z"/>
<path fill="#C2A770" opacity="1.000000" stroke="none" 
	d="
M225.294907,68.973061 
	C225.440475,64.402893 225.917831,59.930088 226.706573,55.224274 
	C228.287643,54.862816 229.557358,54.734375 231.170166,54.398628 
	C234.569153,60.198624 231.738831,66.034492 230.789261,72.355919 
	C228.930130,71.543922 227.278412,70.307175 225.294907,68.973061 
z"/>
<path fill="#C7AF77" opacity="1.000000" stroke="none" 
	d="
M222.536346,50.244587 
	C221.561905,54.494534 220.397263,58.469376 219.073273,62.809196 
	C216.709518,61.313900 214.505142,59.453632 212.161987,57.292084 
	C213.009216,54.932827 214.244003,52.951439 214.907867,50.794338 
	C215.514740,48.822449 215.503967,46.660469 215.933319,44.197945 
	C218.182907,45.865578 220.264526,47.917530 222.536346,50.244587 
z"/>
<path fill="#191918" opacity="1.000000" stroke="none" 
	d="
M43.107658,89.657272 
	C43.353062,88.643394 43.598465,87.629517 44.062706,85.956543 
	C45.314476,77.844383 47.150459,70.394798 47.182854,62.937374 
	C47.226105,52.980312 45.779636,43.021912 45.250019,33.049370 
	C45.196442,32.040588 47.045792,30.930744 48.457954,29.911396 
	C53.243549,29.543884 57.583241,29.132776 61.922935,28.721668 
	C65.267830,37.671497 68.615067,46.620453 71.955521,55.571941 
	C72.588120,57.267109 73.193779,58.972328 73.836159,61.068649 
	C71.962822,63.058376 68.483749,64.602264 68.431404,66.254723 
	C68.150688,75.115883 68.723648,84.004082 69.206329,93.229271 
	C67.749084,93.418213 66.087212,93.260826 64.276901,92.513191 
	C65.698166,88.622749 63.160992,88.043282 61.113056,88.149155 
	C57.412971,88.340462 53.744556,89.144402 49.685280,89.616928 
	C47.240978,89.579987 45.174316,89.618629 43.107658,89.657272 
z"/>
<path fill="#AF8E57" opacity="1.000000" stroke="none" 
	d="
M62.201866,28.494232 
	C57.583241,29.132776 53.243549,29.543884 48.455719,29.497606 
	C47.696083,26.090981 47.384590,23.141739 47.073097,20.192497 
	C47.073097,20.192497 47.020592,20.027409 46.986137,19.947945 
	C50.870434,19.878906 54.879887,19.367874 58.685307,20.029819 
	C63.604210,20.885448 65.101463,24.764925 62.201866,28.494232 
z"/>
<path fill="#AF8E57" opacity="1.000000" stroke="none" 
	d="
M50.062916,89.692513 
	C53.744556,89.144402 57.412971,88.340462 61.113056,88.149155 
	C63.160992,88.043282 65.698166,88.622749 63.980957,92.215080 
	C59.477688,93.948097 55.121918,95.388969 50.378601,96.435852 
	C50.015011,93.925407 50.038963,91.808960 50.062916,89.692513 
z"/>
<path fill="#A9844D" opacity="1.000000" stroke="none" 
	d="
M49.685280,89.616928 
	C50.038963,91.808960 50.015011,93.925407 49.984566,96.447372 
	C49.474709,97.100006 48.971336,97.347122 48.234348,97.752579 
	C46.640255,98.027466 45.279774,98.144020 43.509727,98.288971 
	C43.086941,95.752144 43.073723,93.186928 43.084080,90.139488 
	C45.174316,89.618629 47.240978,89.579987 49.685280,89.616928 
z"/>
<path fill="#8B6C3F" opacity="1.000000" stroke="none" 
	d="
M65.885406,130.589142 
	C64.258293,130.944489 62.654598,130.944489 60.293774,130.944489 
	C60.293774,127.751198 60.293774,125.029495 60.276855,121.895103 
	C62.005253,121.358345 63.750565,121.234261 65.495880,121.110184 
	C65.601578,121.474739 65.707283,121.839302 65.812981,122.203857 
	C64.695656,122.690826 63.578331,123.177788 62.556274,123.623230 
	C62.670486,125.170586 62.784210,126.711365 62.907452,128.381073 
	C63.676167,128.855591 64.792488,129.544693 65.885406,130.589142 
z"/>
<path fill="#B29D6A" opacity="1.000000" stroke="none" 
	d="
M194.619843,121.228622 
	C196.166733,122.685272 197.340912,124.203445 198.972229,126.312698 
	C199.465988,124.138390 199.772125,122.790283 200.078262,121.442169 
	C200.454147,121.426285 200.830017,121.410393 201.205902,121.394501 
	C201.351883,123.008423 201.497864,124.622337 201.742157,126.615524 
	C201.559479,128.204453 201.278473,129.414108 200.874908,131.151382 
	C199.180038,129.552277 197.922760,128.366043 196.350479,126.882591 
	C195.622406,128.326523 195.051086,129.459549 194.479782,130.592575 
	C194.012054,130.506805 193.544312,130.421036 193.076584,130.335281 
	C193.466766,127.320236 193.856949,124.305183 194.619843,121.228622 
z"/>
<path fill="#997B4F" opacity="1.000000" stroke="none" 
	d="
M235.662384,128.932251 
	C231.917160,132.287720 230.023163,131.399887 228.671112,125.231842 
	C230.007263,121.765152 232.096252,120.348938 235.145142,121.512527 
	C233.681564,123.301079 232.351379,124.926582 231.021210,126.552094 
	C232.434921,127.328308 233.848648,128.104538 235.662384,128.932251 
z"/>
<path fill="#8B6C3F" opacity="1.000000" stroke="none" 
	d="
M247.187241,121.450577 
	C249.138306,121.072174 251.095245,121.072174 254.007065,121.072174 
	C252.663132,122.640022 251.935425,123.488968 251.214813,124.670158 
	C251.074905,126.726273 250.927887,128.450150 250.689850,131.241272 
	C249.267715,127.413307 248.230408,124.621147 247.187241,121.450577 
z"/>
<path fill="#D4C085" opacity="1.000000" stroke="none" 
	d="
M204.924103,32.521290 
	C204.712372,37.812065 204.351730,42.810867 203.889282,48.271244 
	C199.177765,43.738945 194.504669,38.801079 190.005234,33.709740 
	C188.949631,32.515263 187.858948,30.791740 187.882706,29.329460 
	C187.922318,26.892794 188.848816,24.470539 189.401886,22.042217 
	C191.512207,22.585806 194.032974,22.580673 195.646927,23.787889 
	C198.947662,26.256796 201.761093,29.377207 204.924103,32.521290 
z"/>
<path fill="#B3925E" opacity="1.000000" stroke="none" 
	d="
M252.708542,93.620132 
	C250.229523,91.303284 247.750504,88.986427 245.353439,86.091522 
	C246.296005,82.324173 247.156616,79.134880 248.017242,75.945595 
	C250.241791,78.105804 252.466354,80.265999 254.840149,83.136978 
	C254.229126,87.105209 253.468826,90.362671 252.708542,93.620132 
z"/>
<path fill="#AD8A58" opacity="1.000000" stroke="none" 
	d="
M252.860565,93.893341 
	C253.468826,90.362671 254.229126,87.105209 254.991379,83.431587 
	C257.351776,85.275063 259.710236,87.534698 262.343628,89.956757 
	C262.953156,90.579895 263.287781,91.040604 263.409546,91.903748 
	C262.079010,94.994781 260.961273,97.683403 259.843567,100.372025 
	C257.566589,98.303528 255.289597,96.235039 252.860565,93.893341 
z"/>
<path fill="#B79864" opacity="1.000000" stroke="none" 
	d="
M247.862823,75.646286 
	C247.156616,79.134880 246.296005,82.324173 245.194000,85.801300 
	C242.986908,84.408203 241.021194,82.727257 238.907257,80.767029 
	C239.461502,76.899437 240.164001,73.311142 240.950760,69.318985 
	C243.259506,71.059074 245.483963,73.203026 247.862823,75.646286 
z"/>
<path fill="#AC8959" opacity="1.000000" stroke="none" 
	d="
M259.144440,39.821445 
	C258.035248,37.767803 257.214203,35.593208 256.135406,33.168358 
	C258.472656,30.800936 261.067688,28.683775 263.848572,26.289104 
	C265.791077,25.381916 267.547760,24.752235 269.656036,24.492039 
	C270.584412,26.357035 271.161163,27.852547 271.737946,29.348064 
	C268.618347,32.043831 265.498749,34.739594 262.207520,37.722755 
	C261.168121,38.573597 260.300385,39.137043 259.144440,39.821445 
z"/>
<path fill="#A07D52" opacity="1.000000" stroke="none" 
	d="
M272.005798,29.182346 
	C271.161163,27.852547 270.584412,26.357035 270.004456,24.440897 
	C271.474365,24.067823 272.947479,24.115372 274.420563,24.162924 
	C273.704956,25.780828 272.989319,27.398729 272.005798,29.182346 
z"/>
<path fill="#AA8453" opacity="1.000000" stroke="none" 
	d="
M260.029755,100.632835 
	C260.961273,97.683403 262.079010,94.994781 263.506958,92.171631 
	C266.138794,94.447914 268.460419,96.858749 270.784424,99.896851 
	C269.812561,102.715202 268.838318,104.906273 267.864075,107.097351 
	C265.314697,105.029457 262.765320,102.961555 260.029755,100.632835 
z"/>
<path fill="#A07A4B" opacity="1.000000" stroke="none" 
	d="
M268.070679,107.369247 
	C268.838318,104.906273 269.812561,102.715202 270.944641,100.185501 
	C273.412750,102.433907 275.813690,104.948593 277.973145,107.655922 
	C278.554840,108.385246 278.900726,110.250656 278.482361,110.628479 
	C277.660919,111.370316 275.963654,112.039291 275.096832,111.662285 
	C272.695007,110.617622 270.533661,109.020142 268.070679,107.369247 
z"/>
<path fill="#A48B5C" opacity="1.000000" stroke="none" 
	d="
M212.294556,121.598297 
	C214.102585,121.160744 215.853256,121.160744 217.817871,121.160744 
	C216.625717,122.830856 215.737106,124.075760 214.923538,125.660179 
	C215.495758,127.365211 215.992920,128.730743 216.558929,130.285370 
	C213.538025,131.958908 212.279160,131.361572 212.148026,126.966560 
	C212.099060,125.325340 212.202988,123.679550 212.294556,121.598297 
z"/>
<path fill="#E3D795" opacity="1.000000" stroke="none" 
	d="
M130.558548,47.849281 
	C130.527908,48.717308 130.172150,49.727634 129.505234,50.874187 
	C129.540512,50.004139 129.886978,48.997860 130.558548,47.849281 
z"/>
<path fill="#A9844D" opacity="1.000000" stroke="none" 
	d="
M46.669220,20.161049 
	C47.384590,23.141739 47.696083,26.090981 48.009819,29.454010 
	C47.045792,30.930744 45.196442,32.040588 45.250019,33.049370 
	C45.779636,43.021912 47.226105,52.980312 47.182854,62.937374 
	C47.150459,70.394798 45.314476,77.844383 44.071281,85.641586 
	C42.912178,81.457146 41.306957,76.953758 41.132156,72.395515 
	C40.496162,55.810814 40.338642,39.207767 39.999870,22.198650 
	C42.087799,21.233644 44.176571,20.681622 46.669220,20.161049 
z"/>
<path fill="#282825" opacity="1.000000" stroke="none" 
	d="
M162.551727,67.123749 
	C167.149994,75.902962 165.215240,84.174149 161.061523,92.642220 
	C157.427277,95.482841 154.935562,94.262611 155.072052,90.275368 
	C155.304504,83.485062 156.162308,76.683975 157.329803,69.987213 
	C157.542847,68.765259 160.483917,68.018898 162.551727,67.123749 
z"/>
</svg>